<svg width="386" height="348" viewBox="0 0 386 348" fill="none" xmlns="http://www.w3.org/2000/svg">
<g opacity="0.8">
<mask id="path-1-outside-1_316_7033" maskUnits="userSpaceOnUse" x="40.3157" y="18.7184" width="304.876" height="304.876" fill="black">
<rect fill="white" x="40.3157" y="18.7184" width="304.876" height="304.876"/>
<path d="M164.402 57.6481C226.269 42.3919 289.079 79.684 305.165 141.533L305.535 142.994C320.791 204.861 283.499 267.671 221.65 283.757L220.188 284.127C158.808 299.262 96.5001 262.674 79.8147 201.697L79.426 200.241C63.2142 137.906 100.605 74.2299 162.941 58.0179L164.402 57.6481ZM175.526 106.408C139.916 115.67 118.555 152.046 127.816 187.656C137.078 223.267 173.454 244.627 209.065 235.366C244.675 226.105 266.036 189.729 256.774 154.118C247.513 118.507 211.137 97.1469 175.526 106.408Z"/>
</mask>
<path d="M164.402 57.6481C226.269 42.3919 289.079 79.684 305.165 141.533L305.535 142.994C320.791 204.861 283.499 267.671 221.65 283.757L220.188 284.127C158.808 299.262 96.5001 262.674 79.8147 201.697L79.426 200.241C63.2142 137.906 100.605 74.2299 162.941 58.0179L164.402 57.6481ZM175.526 106.408C139.916 115.67 118.555 152.046 127.816 187.656C137.078 223.267 173.454 244.627 209.065 235.366C244.675 226.105 266.036 189.729 256.774 154.118C247.513 118.507 211.137 97.1469 175.526 106.408Z" fill="#00C6AE"/>
<path d="M164.402 57.6481L162.487 49.8807L162.463 49.8867L162.439 49.8927L164.402 57.6481ZM305.165 141.533L312.92 139.57L312.914 139.545L312.907 139.519L305.165 141.533ZM305.535 142.994L313.302 141.078L313.296 141.054L313.29 141.03L305.535 142.994ZM221.65 283.757L223.613 291.512L223.638 291.506L223.663 291.499L221.65 283.757ZM220.188 284.127L222.103 291.894L222.127 291.888L222.151 291.882L220.188 284.127ZM79.8147 201.697L72.0855 203.761L72.0918 203.785L72.0984 203.809L79.8147 201.697ZM79.426 200.241L71.6835 202.255L71.6901 202.28L71.6967 202.305L79.426 200.241ZM162.941 58.0179L160.978 50.2625L160.953 50.2689L160.928 50.2754L162.941 58.0179ZM175.526 106.408L173.513 98.6657L173.512 98.6657L175.526 106.408ZM127.816 187.656L120.074 189.67L120.074 189.67L127.816 187.656ZM209.065 235.366L211.078 243.109L211.078 243.109L209.065 235.366ZM256.774 154.118L264.517 152.104L264.517 152.104L256.774 154.118ZM164.402 57.6481L166.317 65.4154C223.938 51.2062 282.441 85.9408 297.422 143.547L305.165 141.533L312.907 139.519C295.718 73.4272 228.599 33.5775 162.487 49.8807L164.402 57.6481ZM305.165 141.533L297.409 143.496L297.779 144.957L305.535 142.994L313.29 141.03L312.92 139.57L305.165 141.533ZM305.535 142.994L297.767 144.909C311.976 202.53 277.242 261.032 219.636 276.014L221.65 283.757L223.663 291.499C289.755 274.31 329.605 207.191 313.302 141.078L305.535 142.994ZM221.65 283.757L219.686 276.001L218.224 276.371L220.188 284.127L222.151 291.882L223.613 291.512L221.65 283.757ZM220.188 284.127L218.272 276.359C161.106 290.456 103.071 256.377 87.531 199.586L79.8147 201.697L72.0984 203.809C89.9291 268.971 156.511 308.068 222.103 291.894L220.188 284.127ZM79.8147 201.697L87.5439 199.634L87.1552 198.178L79.426 200.241L71.6967 202.305L72.0855 203.761L79.8147 201.697ZM79.426 200.241L87.1684 198.228C72.0687 140.168 106.895 80.8602 164.955 65.7603L162.941 58.0179L160.928 50.2754C94.3159 67.5995 54.3597 135.643 71.6835 202.255L79.426 200.241ZM162.941 58.0179L164.905 65.7732L166.365 65.4034L164.402 57.6481L162.439 49.8927L160.978 50.2625L162.941 58.0179ZM175.526 106.408L173.512 98.6657C133.626 109.039 109.7 149.783 120.074 189.67L127.816 187.656L135.559 185.643C127.41 154.308 146.205 122.3 177.54 114.151L175.526 106.408ZM127.816 187.656L120.074 189.67C130.447 229.557 171.192 253.482 211.078 243.109L209.065 235.366L207.051 227.624C175.716 235.773 143.708 216.977 135.559 185.643L127.816 187.656ZM209.065 235.366L211.078 243.109C250.965 232.735 274.89 191.991 264.517 152.104L256.774 154.118L249.032 156.132C257.181 187.466 238.386 219.475 207.051 227.624L209.065 235.366ZM256.774 154.118L264.517 152.104C254.143 112.218 213.399 88.2924 173.513 98.6657L175.526 106.408L177.54 114.151C208.874 106.001 240.883 124.797 249.032 156.132L256.774 154.118Z" fill="#008B7B" mask="url(#path-1-outside-1_316_7033)"/>
</g>
<g opacity="0.9">
<mask id="path-3-outside-2_316_7033" maskUnits="userSpaceOnUse" x="16.5684" y="2.14413" width="339.022" height="339.022" fill="black">
<rect fill="white" x="16.5684" y="2.14413" width="339.022" height="339.022"/>
<path d="M153.005 45.9325C222.295 27.9122 293.075 69.4748 311.096 138.765L311.508 140.389C328.466 209.158 287.013 278.976 218.263 296.856L216.64 297.267C147.871 314.225 78.0527 272.772 60.1729 204.023C42.1533 134.733 83.7153 63.9531 153.005 45.9325ZM165.59 94.3228C123.025 105.393 97.494 148.873 108.563 191.438C119.633 234.003 163.113 259.535 205.678 248.466C248.244 237.395 273.776 193.915 262.706 151.349C251.635 108.785 208.155 83.253 165.59 94.3228Z"/>
</mask>
<path d="M153.005 45.9325C222.295 27.9122 293.075 69.4748 311.096 138.765L311.508 140.389C328.466 209.158 287.013 278.976 218.263 296.856L216.64 297.267C147.871 314.225 78.0527 272.772 60.1729 204.023C42.1533 134.733 83.7153 63.9531 153.005 45.9325ZM165.59 94.3228C123.025 105.393 97.494 148.873 108.563 191.438C119.633 234.003 163.113 259.535 205.678 248.466C248.244 237.395 273.776 193.915 262.706 151.349C251.635 108.785 208.155 83.253 165.59 94.3228Z" fill="#00C6AE"/>
<path d="M153.005 45.9325L150.74 37.2223L150.74 37.2223L153.005 45.9325ZM311.096 138.765L319.821 136.555L319.814 136.527L319.807 136.499L311.096 138.765ZM311.508 140.389L320.246 138.234L320.239 138.207L320.232 138.18L311.508 140.389ZM218.263 296.856L220.473 305.581L220.501 305.573L220.529 305.566L218.263 296.856ZM216.64 297.267L218.795 306.005L218.822 305.999L218.849 305.992L216.64 297.267ZM60.1729 204.023L51.4627 206.288L51.4627 206.288L60.1729 204.023ZM165.59 94.3228L163.325 85.6125L163.325 85.6126L165.59 94.3228ZM108.563 191.438L99.8529 193.703L99.853 193.703L108.563 191.438ZM205.678 248.466L207.944 257.176L207.944 257.176L205.678 248.466ZM262.706 151.349L271.416 149.084L271.416 149.084L262.706 151.349ZM153.005 45.9325L155.27 54.6428C219.75 37.8736 285.616 76.5507 302.386 141.03L311.096 138.765L319.807 136.499C300.534 62.399 224.84 17.9509 150.74 37.2223L153.005 45.9325ZM311.096 138.765L302.372 140.974L302.783 142.598L311.508 140.389L320.232 138.18L319.821 136.555L311.096 138.765ZM311.508 140.389L302.77 142.544C318.55 206.536 279.974 271.507 215.998 288.146L218.263 296.856L220.529 305.566C294.051 286.445 338.382 211.78 320.246 138.234L311.508 140.389ZM218.263 296.856L216.054 288.131L214.43 288.542L216.64 297.267L218.849 305.992L220.473 305.581L218.263 296.856ZM216.64 297.267L214.485 288.529C150.493 304.309 85.5215 265.733 68.8832 201.757L60.1729 204.023L51.4627 206.288C70.584 279.811 145.249 324.141 218.795 306.005L216.64 297.267ZM60.1729 204.023L68.8832 201.758C52.1146 137.278 90.7912 71.4123 155.271 54.6428L153.005 45.9325L150.74 37.2223C76.6394 56.494 32.192 132.188 51.4627 206.288L60.1729 204.023ZM165.59 94.3228L163.325 85.6126C115.95 97.9338 87.5328 146.328 99.8529 193.703L108.563 191.438L117.273 189.173C107.455 151.418 130.101 112.852 167.855 103.033L165.59 94.3228ZM108.563 191.438L99.853 193.703C112.174 241.079 160.568 269.497 207.944 257.176L205.678 248.466L203.413 239.755C165.659 249.574 127.092 226.927 117.273 189.172L108.563 191.438ZM205.678 248.466L207.944 257.176C255.319 244.855 283.737 196.46 271.416 149.084L262.706 151.349L253.996 153.615C263.815 191.369 241.168 229.936 203.413 239.755L205.678 248.466ZM262.706 151.349L271.416 149.084C259.095 101.709 210.7 73.2917 163.325 85.6125L165.59 94.3228L167.855 103.033C205.61 93.2143 244.176 115.861 253.996 153.615L262.706 151.349Z" fill="#008B7B" mask="url(#path-3-outside-2_316_7033)"/>
</g>
<mask id="path-5-outside-3_316_7033" maskUnits="userSpaceOnUse" x="-11.2751" y="-12.2575" width="371.949" height="371.949" fill="black">
<rect fill="white" x="-11.2751" y="-12.2575" width="371.949" height="371.949"/>
<path d="M138.727 35.832C214.836 16.0383 292.581 61.6906 312.375 137.799C332.168 213.908 286.516 291.653 210.407 311.447C134.298 331.24 56.5537 285.588 36.7598 209.479C16.9661 133.37 62.6184 55.6259 138.727 35.832ZM151.312 84.2223C101.929 97.0657 72.3068 147.511 85.1501 196.894C97.9935 246.278 148.438 275.9 197.822 263.056C247.206 250.213 276.827 199.768 263.984 150.384C251.141 101.001 200.696 71.379 151.312 84.2223Z"/>
</mask>
<path d="M138.727 35.832C214.836 16.0383 292.581 61.6906 312.375 137.799C332.168 213.908 286.516 291.653 210.407 311.447C134.298 331.24 56.5537 285.588 36.7598 209.479C16.9661 133.37 62.6184 55.6259 138.727 35.832ZM151.312 84.2223C101.929 97.0657 72.3068 147.511 85.1501 196.894C97.9935 246.278 148.438 275.9 197.822 263.056C247.206 250.213 276.827 199.768 263.984 150.384C251.141 101.001 200.696 71.379 151.312 84.2223Z" fill="#00C6AE"/>
<path d="M138.727 35.832L136.21 26.1539L136.21 26.1539L138.727 35.832ZM312.375 137.799L322.053 135.282L322.053 135.282L312.375 137.799ZM210.407 311.447L212.924 321.125L212.924 321.125L210.407 311.447ZM36.7598 209.479L27.0817 211.996L27.0818 211.996L36.7598 209.479ZM151.312 84.2223L148.795 74.5442L148.795 74.5442L151.312 84.2223ZM85.1501 196.894L75.472 199.411L75.472 199.411L85.1501 196.894ZM197.822 263.056L200.339 272.735L200.339 272.735L197.822 263.056ZM263.984 150.384L273.662 147.867L273.662 147.867L263.984 150.384ZM138.727 35.832L141.244 45.51C212.008 27.1064 284.293 69.5527 302.696 140.316L312.375 137.799L322.053 135.282C300.869 53.8286 217.664 4.97011 136.21 26.1539L138.727 35.832ZM312.375 137.799L302.696 140.316C321.1 211.08 278.654 283.365 207.89 301.769L210.407 311.447L212.924 321.125C294.378 299.941 343.236 216.736 322.053 135.282L312.375 137.799ZM210.407 311.447L207.89 301.769C137.126 320.172 64.8417 277.726 46.4379 206.962L36.7598 209.479L27.0818 211.996C48.2658 293.45 131.47 342.309 212.924 321.125L210.407 311.447ZM36.7598 209.479L46.4379 206.962C28.0342 136.198 70.4805 63.9138 141.244 45.51L138.727 35.832L136.21 26.1539C54.7564 47.3379 5.89792 130.542 27.0817 211.996L36.7598 209.479ZM151.312 84.2223L148.795 74.5442C94.0666 88.7777 61.2387 144.683 75.472 199.411L85.1501 196.894L94.8281 194.377C83.375 150.339 109.791 105.354 153.829 93.9003L151.312 84.2223ZM85.1501 196.894L75.472 199.411C89.7056 254.14 145.61 286.968 200.339 272.735L197.822 263.056L195.305 253.378C151.266 264.832 106.281 238.416 94.8281 194.377L85.1501 196.894ZM197.822 263.056L200.339 272.735C255.068 258.501 287.896 202.596 273.662 147.867L263.984 150.384L254.306 152.901C265.759 196.94 239.344 241.925 195.305 253.378L197.822 263.056ZM263.984 150.384L273.662 147.867C259.429 93.1388 203.524 60.3109 148.795 74.5442L151.312 84.2223L153.829 93.9003C197.868 82.4472 242.853 108.863 254.306 152.901L263.984 150.384Z" fill="#008B7B" mask="url(#path-5-outside-3_316_7033)"/>
<g filter="url(#filter0_d_316_7033)">
<rect width="29.7074" height="29.5016" rx="14.7508" transform="matrix(0.999982 0.00599915 0.00604112 0.999982 98.6553 258.126)" fill="#00C6AE"/>
</g>
<g filter="url(#filter1_d_316_7033)">
<rect width="29.7074" height="29.5016" rx="14.7508" transform="matrix(0.869009 -0.494795 0.505223 0.862989 150.026 284.321)" fill="#00C6AE"/>
</g>
<g filter="url(#filter2_d_316_7033)">
<rect width="29.7074" height="29.5016" rx="14.7508" transform="matrix(0.505186 -0.86301 0.86903 0.494759 207.608 281.32)" fill="#00C6AE"/>
</g>
<g filter="url(#filter3_d_316_7033)">
<rect width="29.7074" height="29.5016" rx="14.7508" transform="matrix(0.00599937 -0.999982 0.999982 -0.0060409 255.979 249.93)" fill="#00C6AE"/>
</g>
<g filter="url(#filter4_d_316_7033)">
<rect width="29.7074" height="29.5016" rx="14.7508" transform="matrix(-0.869009 0.494795 -0.505222 -0.862989 196.265 64.3643)" fill="#00C6AE"/>
</g>
<g filter="url(#filter5_d_316_7033)">
<rect width="29.7074" height="29.5016" rx="14.7508" transform="matrix(-0.505187 0.86301 -0.86903 -0.49476 137.821 67.8359)" fill="#00C6AE"/>
</g>
<g filter="url(#filter6_d_316_7033)">
<rect width="29.7074" height="29.5016" rx="14.7508" transform="matrix(-0.00599985 0.999982 -0.999982 0.00604042 88.9673 100.344)" fill="#00C6AE"/>
</g>
<g filter="url(#filter7_d_316_7033)">
<rect width="29.7074" height="29.5016" rx="14.7508" transform="matrix(0.494795 0.86901 -0.862989 0.505222 64.2676 152.169)" fill="#00C6AE"/>
</g>
<g filter="url(#filter8_d_316_7033)">
<rect width="29.7074" height="29.5016" rx="14.7508" transform="matrix(0.86301 0.505187 -0.49476 0.86903 67.2666 209.753)" fill="#00C6AE"/>
</g>
<mask id="path-16-outside-4_316_7033" maskUnits="userSpaceOnUse" x="20.8047" y="19.8115" width="365" height="306" fill="black">
<rect fill="white" x="20.8047" y="19.8115" width="365" height="306"/>
<path d="M138.391 35.4298C179.493 24.7404 221.071 33.1407 253.742 55.1143L214.52 90.0928C195.444 80.8387 173.103 78.0658 150.976 83.8204C101.593 96.6639 71.9716 147.109 84.8137 196.492C97.6572 245.876 148.102 275.497 197.486 262.654C229.337 254.371 252.963 230.444 262.28 201.249L261.157 201.098L190.498 191.596C188.198 191.286 187.526 188.282 189.473 187.021L371.759 68.9864C373.573 67.8123 375.922 69.337 375.588 71.4718L342.133 285.105C341.773 287.397 338.753 288.005 337.534 286.03L304.051 231.738C286.942 269.646 253.456 299.761 210.071 311.044C133.962 330.837 56.217 285.186 36.4231 209.077C16.6304 132.969 62.2828 55.2237 138.391 35.4298ZM287.378 204.855C287.165 204.677 286.904 204.56 286.622 204.523L286.61 204.521L287.378 204.855ZM329.668 138.412C329.886 136.697 327.971 135.532 326.548 136.515L279.803 168.788C278.275 169.843 278.884 172.231 280.731 172.424L304.588 174.915C305.184 174.977 305.721 175.304 306.051 175.805L318.901 195.341C319.921 196.893 322.322 196.336 322.556 194.493L329.668 138.412Z"/>
</mask>
<path d="M138.391 35.4298C179.493 24.7404 221.071 33.1407 253.742 55.1143L214.52 90.0928C195.444 80.8387 173.103 78.0658 150.976 83.8204C101.593 96.6639 71.9716 147.109 84.8137 196.492C97.6572 245.876 148.102 275.497 197.486 262.654C229.337 254.371 252.963 230.444 262.28 201.249L261.157 201.098L190.498 191.596C188.198 191.286 187.526 188.282 189.473 187.021L371.759 68.9864C373.573 67.8123 375.922 69.337 375.588 71.4718L342.133 285.105C341.773 287.397 338.753 288.005 337.534 286.03L304.051 231.738C286.942 269.646 253.456 299.761 210.071 311.044C133.962 330.837 56.217 285.186 36.4231 209.077C16.6304 132.969 62.2828 55.2237 138.391 35.4298ZM287.378 204.855C287.165 204.677 286.904 204.56 286.622 204.523L286.61 204.521L287.378 204.855ZM329.668 138.412C329.886 136.697 327.971 135.532 326.548 136.515L279.803 168.788C278.275 169.843 278.884 172.231 280.731 172.424L304.588 174.915C305.184 174.977 305.721 175.304 306.051 175.805L318.901 195.341C319.921 196.893 322.322 196.336 322.556 194.493L329.668 138.412Z" fill="#00A38F"/>
<path d="M138.391 35.4298L135.874 25.7517L135.874 25.7517L138.391 35.4298ZM253.742 55.1143L260.398 62.5776C262.704 60.5217 263.929 57.5157 263.719 54.4339C263.509 51.3521 261.886 48.5404 259.323 46.8165L253.742 55.1143ZM214.52 90.0928L210.155 99.09C213.8 100.858 218.152 100.253 221.176 97.5562L214.52 90.0928ZM150.976 83.8204L148.459 74.1423L148.459 74.1423L150.976 83.8204ZM84.8137 196.492L75.1356 199.009L75.1357 199.009L84.8137 196.492ZM197.486 262.654L200.003 272.332L200.003 272.332L197.486 262.654ZM262.28 201.249L271.806 204.289C272.705 201.473 272.311 198.403 270.731 195.904C269.151 193.405 266.545 191.734 263.615 191.339L262.28 201.249ZM261.157 201.098L262.492 191.187L262.489 191.187L261.157 201.098ZM190.498 191.596L189.163 201.506L189.166 201.507L190.498 191.596ZM189.473 187.021L184.038 178.627L184.035 178.629L189.473 187.021ZM371.759 68.9864L366.325 60.5918L366.324 60.5925L371.759 68.9864ZM375.588 71.4718L385.468 73.0189L385.468 73.0167L375.588 71.4718ZM342.133 285.105L352.012 286.655L352.013 286.652L342.133 285.105ZM337.534 286.03L329.023 291.28L329.025 291.282L337.534 286.03ZM304.051 231.738L312.563 226.489C310.621 223.341 307.1 221.521 303.408 221.759C299.717 221.997 296.458 224.253 294.936 227.625L304.051 231.738ZM210.071 311.044L212.588 320.722L212.588 320.722L210.071 311.044ZM36.4231 209.077L26.745 211.594L26.7451 211.594L36.4231 209.077ZM287.378 204.855L283.393 214.026C287.959 216.01 293.29 214.333 295.898 210.091C298.505 205.849 297.594 200.335 293.761 197.157L287.378 204.855ZM286.622 204.523L285.102 214.406C285.163 214.416 285.224 214.424 285.285 214.433L286.622 204.523ZM286.61 204.521L288.13 194.637C283.162 193.872 278.398 196.915 277.003 201.745C275.607 206.574 278.014 211.689 282.624 213.692L286.61 204.521ZM329.668 138.412L339.589 139.67L339.589 139.669L329.668 138.412ZM326.548 136.515L320.867 128.285L320.867 128.286L326.548 136.515ZM279.803 168.788L285.485 177.017L285.485 177.017L279.803 168.788ZM280.731 172.424L279.689 182.37L279.692 182.37L280.731 172.424ZM304.588 174.915L305.627 164.969L305.627 164.969L304.588 174.915ZM306.051 175.805L314.406 170.31L314.404 170.307L306.051 175.805ZM318.901 195.341L310.546 200.836L310.546 200.837L318.901 195.341ZM322.556 194.493L332.476 195.751L332.476 195.751L322.556 194.493ZM138.391 35.4298L140.908 45.1078C179.121 35.1696 217.766 42.9692 248.162 63.4121L253.742 55.1143L259.323 46.8165C224.377 23.3123 179.864 14.3112 135.874 25.7517L138.391 35.4298ZM253.742 55.1143L247.087 47.651L207.864 82.6295L214.52 90.0928L221.176 97.5562L260.398 62.5776L253.742 55.1143ZM214.52 90.0928L218.885 81.0957C197.751 70.8429 172.974 67.7667 148.459 74.1423L150.976 83.8204L153.493 93.4984C173.232 88.3648 193.138 90.8346 210.155 99.09L214.52 90.0928ZM150.976 83.8204L148.459 74.1423C93.7309 88.376 60.9035 144.281 75.1356 199.009L84.8137 196.492L94.4918 193.975C83.0396 149.937 109.455 104.952 153.493 93.4984L150.976 83.8204ZM84.8137 196.492L75.1357 199.009C89.3692 253.738 145.274 286.565 200.003 272.332L197.486 262.654L194.969 252.976C150.93 264.429 105.945 238.014 94.4918 193.975L84.8137 196.492ZM197.486 262.654L200.003 272.332C235.313 263.149 261.49 236.614 271.806 204.289L262.28 201.249L252.753 198.209C244.435 224.273 223.361 245.592 194.969 252.976L197.486 262.654ZM262.28 201.249L263.615 191.339L262.492 191.187L261.157 201.098L259.821 211.008L260.944 211.159L262.28 201.249ZM261.157 201.098L262.489 191.187L191.831 181.685L190.498 191.596L189.166 201.507L259.824 211.009L261.157 201.098ZM190.498 191.596L191.833 181.685C198.738 182.615 200.75 191.629 194.911 195.413L189.473 187.021L184.035 178.629C174.302 184.936 177.658 199.956 189.163 201.506L190.498 191.596ZM189.473 187.021L194.908 195.415L377.194 77.3803L371.759 68.9864L366.324 60.5925L184.038 178.627L189.473 187.021ZM371.759 68.9864L377.193 77.381C371.752 80.9036 364.707 76.3308 365.708 69.9268L375.588 71.4718L385.468 73.0167C387.137 62.3432 375.394 54.7211 366.325 60.5918L371.759 68.9864ZM375.588 71.4718L365.709 69.9246L332.253 283.557L342.133 285.105L352.013 286.652L385.468 73.0189L375.588 71.4718ZM342.133 285.105L332.254 283.554C333.334 276.675 342.387 274.853 346.044 280.778L337.534 286.03L329.025 291.282C335.12 301.158 350.213 298.12 352.012 286.655L342.133 285.105ZM337.534 286.03L346.046 280.781L312.563 226.489L304.051 231.738L295.54 236.988L329.023 291.28L337.534 286.03ZM304.051 231.738L294.936 227.625C279.018 262.894 247.887 290.876 207.554 301.366L210.071 311.044L212.588 320.722C259.024 308.645 294.865 276.398 313.166 235.852L304.051 231.738ZM210.071 311.044L207.554 301.366C136.79 319.769 64.5049 277.324 46.1012 206.56L36.4231 209.077L26.7451 211.594C47.9291 293.048 131.134 341.906 212.588 320.722L210.071 311.044ZM36.4231 209.077L46.1012 206.56C27.6985 135.797 70.1449 63.5116 140.908 45.1078L138.391 35.4298L135.874 25.7517C54.4207 46.9358 5.56236 130.141 26.745 211.594L36.4231 209.077ZM287.378 204.855L293.761 197.157C292.134 195.807 290.132 194.905 287.959 194.612L286.622 204.523L285.285 214.433C283.675 214.216 282.195 213.548 280.995 212.552L287.378 204.855ZM286.622 204.523L288.143 194.639L288.13 194.637L286.61 204.521L285.089 214.404L285.102 214.406L286.622 204.523ZM286.61 204.521L282.624 213.692L283.393 214.026L287.378 204.855L291.364 195.683L290.595 195.349L286.61 204.521ZM329.668 138.412L339.589 139.669C340.892 129.381 329.408 122.389 320.867 128.285L326.548 136.515L332.229 144.744C326.534 148.676 318.879 144.013 319.748 137.156L329.668 138.412ZM326.548 136.515L320.867 128.286L274.121 160.559L279.803 168.788L285.485 177.017L332.23 144.744L326.548 136.515ZM279.803 168.788L274.121 160.559C264.957 166.886 268.604 181.209 279.689 182.37L280.731 172.424L281.772 162.478C289.164 163.252 291.593 172.8 285.485 177.017L279.803 168.788ZM280.731 172.424L279.692 182.37L303.55 184.861L304.588 174.915L305.627 164.969L281.769 162.478L280.731 172.424ZM304.588 174.915L303.549 184.861C301.164 184.612 299.016 183.306 297.698 181.302L306.051 175.805L314.404 170.307C312.426 167.302 309.205 165.343 305.627 164.969L304.588 174.915ZM306.051 175.805L297.696 181.3L310.546 200.836L318.901 195.341L327.255 189.846L314.406 170.31L306.051 175.805ZM318.901 195.341L310.546 200.837C316.671 210.148 331.074 206.807 332.476 195.751L322.556 194.493L312.635 193.235C313.57 185.865 323.172 183.638 327.255 189.845L318.901 195.341ZM322.556 194.493L332.476 195.751L339.589 139.67L329.668 138.412L319.748 137.154L312.635 193.235L322.556 194.493Z" fill="#008B7B" mask="url(#path-16-outside-4_316_7033)"/>
<g filter="url(#filter9_d_316_7033)">
<rect width="20.48" height="20.48" rx="10.24" transform="matrix(0.999982 0.00599915 0.00604112 0.999982 98.6553 258.126)" fill="#00C6AE"/>
</g>
<g filter="url(#filter10_d_316_7033)">
<rect width="20.48" height="20.48" rx="10.24" transform="matrix(0.869009 -0.494795 0.505223 0.862989 150.026 284.321)" fill="#00C6AE"/>
</g>
<g filter="url(#filter11_d_316_7033)">
<rect width="25.6" height="25.6" rx="12.8" transform="matrix(0.505186 -0.86301 0.86903 0.494759 207.608 281.32)" fill="#00C6AE"/>
</g>
<g filter="url(#filter12_d_316_7033)">
<rect width="29.7074" height="29.5016" rx="14.7508" transform="matrix(0.00599937 -0.999982 0.999982 -0.0060409 255.979 249.93)" fill="#00C6AE"/>
</g>
<g filter="url(#filter13_d_316_7033)">
<rect width="5.12" height="5.12" rx="2.56" transform="matrix(-0.869009 0.494795 -0.505222 -0.862989 196.265 64.3643)" fill="#00C6AE"/>
</g>
<g filter="url(#filter14_d_316_7033)">
<rect width="10.24" height="10.24" rx="5.12" transform="matrix(-0.505187 0.86301 -0.86903 -0.49476 137.821 67.8359)" fill="#00C6AE"/>
</g>
<g filter="url(#filter15_d_316_7033)">
<rect width="10.24" height="10.24" rx="5.12" transform="matrix(-0.00599985 0.999982 -0.999982 0.00604042 88.9673 100.344)" fill="#00C6AE"/>
</g>
<g filter="url(#filter16_d_316_7033)">
<rect width="15.36" height="15.36" rx="7.68" transform="matrix(0.494795 0.86901 -0.862989 0.505222 64.2676 152.169)" fill="#00C6AE"/>
</g>
<g filter="url(#filter17_d_316_7033)">
<rect width="15.36" height="15.36" rx="7.68" transform="matrix(0.86301 0.505187 -0.49476 0.86903 67.2666 209.753)" fill="#00C6AE"/>
</g>
<defs>
<filter id="filter0_d_316_7033" x="96.7441" y="257.215" width="33.7075" height="33.502" filterUnits="userSpaceOnUse" color-interpolation-filters="sRGB">
<feFlood flood-opacity="0" result="BackgroundImageFix"/>
<feColorMatrix in="SourceAlpha" type="matrix" values="0 0 0 0 0 0 0 0 0 0 0 0 0 0 0 0 0 0 127 0" result="hardAlpha"/>
<feOffset dy="1"/>
<feGaussianBlur stdDeviation="1"/>
<feComposite in2="hardAlpha" operator="out"/>
<feColorMatrix type="matrix" values="0 0 0 0 0 0 0 0 0 0 0 0 0 0 0 0 0 0 0.1 0"/>
<feBlend mode="normal" in2="BackgroundImageFix" result="effect1_dropShadow_316_7033"/>
<feBlend mode="normal" in="SourceGraphic" in2="effect1_dropShadow_316_7033" result="shape"/>
</filter>
<filter id="filter1_d_316_7033" x="153.49" y="274.013" width="33.7935" height="33.3779" filterUnits="userSpaceOnUse" color-interpolation-filters="sRGB">
<feFlood flood-opacity="0" result="BackgroundImageFix"/>
<feColorMatrix in="SourceAlpha" type="matrix" values="0 0 0 0 0 0 0 0 0 0 0 0 0 0 0 0 0 0 127 0" result="hardAlpha"/>
<feOffset dy="1"/>
<feGaussianBlur stdDeviation="1"/>
<feComposite in2="hardAlpha" operator="out"/>
<feColorMatrix type="matrix" values="0 0 0 0 0 0 0 0 0 0 0 0 0 0 0 0 0 0 0.1 0"/>
<feBlend mode="normal" in2="BackgroundImageFix" result="effect1_dropShadow_316_7033"/>
<feBlend mode="normal" in="SourceGraphic" in2="effect1_dropShadow_316_7033" result="shape"/>
</filter>
<filter id="filter2_d_316_7033" x="211.087" y="260.057" width="33.6865" height="33.4854" filterUnits="userSpaceOnUse" color-interpolation-filters="sRGB">
<feFlood flood-opacity="0" result="BackgroundImageFix"/>
<feColorMatrix in="SourceAlpha" type="matrix" values="0 0 0 0 0 0 0 0 0 0 0 0 0 0 0 0 0 0 127 0" result="hardAlpha"/>
<feOffset dy="1"/>
<feGaussianBlur stdDeviation="1"/>
<feComposite in2="hardAlpha" operator="out"/>
<feColorMatrix type="matrix" values="0 0 0 0 0 0 0 0 0 0 0 0 0 0 0 0 0 0 0.1 0"/>
<feBlend mode="normal" in2="BackgroundImageFix" result="effect1_dropShadow_316_7033"/>
<feBlend mode="normal" in="SourceGraphic" in2="effect1_dropShadow_316_7033" result="shape"/>
</filter>
<filter id="filter3_d_316_7033" x="254.068" y="219.134" width="33.5015" height="33.707" filterUnits="userSpaceOnUse" color-interpolation-filters="sRGB">
<feFlood flood-opacity="0" result="BackgroundImageFix"/>
<feColorMatrix in="SourceAlpha" type="matrix" values="0 0 0 0 0 0 0 0 0 0 0 0 0 0 0 0 0 0 127 0" result="hardAlpha"/>
<feOffset dy="1"/>
<feGaussianBlur stdDeviation="1"/>
<feComposite in2="hardAlpha" operator="out"/>
<feColorMatrix type="matrix" values="0 0 0 0 0 0 0 0 0 0 0 0 0 0 0 0 0 0 0.1 0"/>
<feBlend mode="normal" in2="BackgroundImageFix" result="effect1_dropShadow_316_7033"/>
<feBlend mode="normal" in="SourceGraphic" in2="effect1_dropShadow_316_7033" result="shape"/>
</filter>
<filter id="filter4_d_316_7033" x="159.008" y="43.2949" width="33.7935" height="33.3779" filterUnits="userSpaceOnUse" color-interpolation-filters="sRGB">
<feFlood flood-opacity="0" result="BackgroundImageFix"/>
<feColorMatrix in="SourceAlpha" type="matrix" values="0 0 0 0 0 0 0 0 0 0 0 0 0 0 0 0 0 0 127 0" result="hardAlpha"/>
<feOffset dy="1"/>
<feGaussianBlur stdDeviation="1"/>
<feComposite in2="hardAlpha" operator="out"/>
<feColorMatrix type="matrix" values="0 0 0 0 0 0 0 0 0 0 0 0 0 0 0 0 0 0 0.1 0"/>
<feBlend mode="normal" in2="BackgroundImageFix" result="effect1_dropShadow_316_7033"/>
<feBlend mode="normal" in="SourceGraphic" in2="effect1_dropShadow_316_7033" result="shape"/>
</filter>
<filter id="filter5_d_316_7033" x="100.655" y="57.6143" width="33.6865" height="33.4854" filterUnits="userSpaceOnUse" color-interpolation-filters="sRGB">
<feFlood flood-opacity="0" result="BackgroundImageFix"/>
<feColorMatrix in="SourceAlpha" type="matrix" values="0 0 0 0 0 0 0 0 0 0 0 0 0 0 0 0 0 0 127 0" result="hardAlpha"/>
<feOffset dy="1"/>
<feGaussianBlur stdDeviation="1"/>
<feComposite in2="hardAlpha" operator="out"/>
<feColorMatrix type="matrix" values="0 0 0 0 0 0 0 0 0 0 0 0 0 0 0 0 0 0 0.1 0"/>
<feBlend mode="normal" in2="BackgroundImageFix" result="effect1_dropShadow_316_7033"/>
<feBlend mode="normal" in="SourceGraphic" in2="effect1_dropShadow_316_7033" result="shape"/>
</filter>
<filter id="filter6_d_316_7033" x="57.377" y="99.4326" width="33.5015" height="33.707" filterUnits="userSpaceOnUse" color-interpolation-filters="sRGB">
<feFlood flood-opacity="0" result="BackgroundImageFix"/>
<feColorMatrix in="SourceAlpha" type="matrix" values="0 0 0 0 0 0 0 0 0 0 0 0 0 0 0 0 0 0 127 0" result="hardAlpha"/>
<feOffset dy="1"/>
<feGaussianBlur stdDeviation="1"/>
<feComposite in2="hardAlpha" operator="out"/>
<feColorMatrix type="matrix" values="0 0 0 0 0 0 0 0 0 0 0 0 0 0 0 0 0 0 0.1 0"/>
<feBlend mode="normal" in2="BackgroundImageFix" result="effect1_dropShadow_316_7033"/>
<feBlend mode="normal" in="SourceGraphic" in2="effect1_dropShadow_316_7033" result="shape"/>
</filter>
<filter id="filter7_d_316_7033" x="42.1982" y="156.633" width="33.3779" height="33.793" filterUnits="userSpaceOnUse" color-interpolation-filters="sRGB">
<feFlood flood-opacity="0" result="BackgroundImageFix"/>
<feColorMatrix in="SourceAlpha" type="matrix" values="0 0 0 0 0 0 0 0 0 0 0 0 0 0 0 0 0 0 127 0" result="hardAlpha"/>
<feOffset dy="1"/>
<feGaussianBlur stdDeviation="1"/>
<feComposite in2="hardAlpha" operator="out"/>
<feColorMatrix type="matrix" values="0 0 0 0 0 0 0 0 0 0 0 0 0 0 0 0 0 0 0.1 0"/>
<feBlend mode="normal" in2="BackgroundImageFix" result="effect1_dropShadow_316_7033"/>
<feBlend mode="normal" in="SourceGraphic" in2="effect1_dropShadow_316_7033" result="shape"/>
</filter>
<filter id="filter8_d_316_7033" x="56.0444" y="214.232" width="33.4858" height="33.6865" filterUnits="userSpaceOnUse" color-interpolation-filters="sRGB">
<feFlood flood-opacity="0" result="BackgroundImageFix"/>
<feColorMatrix in="SourceAlpha" type="matrix" values="0 0 0 0 0 0 0 0 0 0 0 0 0 0 0 0 0 0 127 0" result="hardAlpha"/>
<feOffset dy="1"/>
<feGaussianBlur stdDeviation="1"/>
<feComposite in2="hardAlpha" operator="out"/>
<feColorMatrix type="matrix" values="0 0 0 0 0 0 0 0 0 0 0 0 0 0 0 0 0 0 0.1 0"/>
<feBlend mode="normal" in2="BackgroundImageFix" result="effect1_dropShadow_316_7033"/>
<feBlend mode="normal" in="SourceGraphic" in2="effect1_dropShadow_316_7033" result="shape"/>
</filter>
<filter id="filter9_d_316_7033" x="96.7168" y="257.188" width="24.48" height="24.4795" filterUnits="userSpaceOnUse" color-interpolation-filters="sRGB">
<feFlood flood-opacity="0" result="BackgroundImageFix"/>
<feColorMatrix in="SourceAlpha" type="matrix" values="0 0 0 0 0 0 0 0 0 0 0 0 0 0 0 0 0 0 127 0" result="hardAlpha"/>
<feOffset dy="1"/>
<feGaussianBlur stdDeviation="1"/>
<feComposite in2="hardAlpha" operator="out"/>
<feColorMatrix type="matrix" values="0 0 0 0 0 0 0 0 0 0 0 0 0 0 0 0 0 0 0.1 0"/>
<feBlend mode="normal" in2="BackgroundImageFix" result="effect1_dropShadow_316_7033"/>
<feBlend mode="normal" in="SourceGraphic" in2="effect1_dropShadow_316_7033" result="shape"/>
</filter>
<filter id="filter10_d_316_7033" x="151.803" y="276.903" width="24.5898" height="24.377" filterUnits="userSpaceOnUse" color-interpolation-filters="sRGB">
<feFlood flood-opacity="0" result="BackgroundImageFix"/>
<feColorMatrix in="SourceAlpha" type="matrix" values="0 0 0 0 0 0 0 0 0 0 0 0 0 0 0 0 0 0 127 0" result="hardAlpha"/>
<feOffset dy="1"/>
<feGaussianBlur stdDeviation="1"/>
<feComposite in2="hardAlpha" operator="out"/>
<feColorMatrix type="matrix" values="0 0 0 0 0 0 0 0 0 0 0 0 0 0 0 0 0 0 0.1 0"/>
<feBlend mode="normal" in2="BackgroundImageFix" result="effect1_dropShadow_316_7033"/>
<feBlend mode="normal" in="SourceGraphic" in2="effect1_dropShadow_316_7033" result="shape"/>
</filter>
<filter id="filter11_d_316_7033" x="210.329" y="262.871" width="29.7373" height="29.4707" filterUnits="userSpaceOnUse" color-interpolation-filters="sRGB">
<feFlood flood-opacity="0" result="BackgroundImageFix"/>
<feColorMatrix in="SourceAlpha" type="matrix" values="0 0 0 0 0 0 0 0 0 0 0 0 0 0 0 0 0 0 127 0" result="hardAlpha"/>
<feOffset dy="1"/>
<feGaussianBlur stdDeviation="1"/>
<feComposite in2="hardAlpha" operator="out"/>
<feColorMatrix type="matrix" values="0 0 0 0 0 0 0 0 0 0 0 0 0 0 0 0 0 0 0.1 0"/>
<feBlend mode="normal" in2="BackgroundImageFix" result="effect1_dropShadow_316_7033"/>
<feBlend mode="normal" in="SourceGraphic" in2="effect1_dropShadow_316_7033" result="shape"/>
</filter>
<filter id="filter12_d_316_7033" x="254.068" y="219.134" width="33.5015" height="33.707" filterUnits="userSpaceOnUse" color-interpolation-filters="sRGB">
<feFlood flood-opacity="0" result="BackgroundImageFix"/>
<feColorMatrix in="SourceAlpha" type="matrix" values="0 0 0 0 0 0 0 0 0 0 0 0 0 0 0 0 0 0 127 0" result="hardAlpha"/>
<feOffset dy="1"/>
<feGaussianBlur stdDeviation="1"/>
<feComposite in2="hardAlpha" operator="out"/>
<feColorMatrix type="matrix" values="0 0 0 0 0 0 0 0 0 0 0 0 0 0 0 0 0 0 0.1 0"/>
<feBlend mode="normal" in2="BackgroundImageFix" result="effect1_dropShadow_316_7033"/>
<feBlend mode="normal" in="SourceGraphic" in2="effect1_dropShadow_316_7033" result="shape"/>
</filter>
<filter id="filter13_d_316_7033" x="188.173" y="59.875" width="9.14746" height="9.09375" filterUnits="userSpaceOnUse" color-interpolation-filters="sRGB">
<feFlood flood-opacity="0" result="BackgroundImageFix"/>
<feColorMatrix in="SourceAlpha" type="matrix" values="0 0 0 0 0 0 0 0 0 0 0 0 0 0 0 0 0 0 127 0" result="hardAlpha"/>
<feOffset dy="1"/>
<feGaussianBlur stdDeviation="1"/>
<feComposite in2="hardAlpha" operator="out"/>
<feColorMatrix type="matrix" values="0 0 0 0 0 0 0 0 0 0 0 0 0 0 0 0 0 0 0.1 0"/>
<feBlend mode="normal" in2="BackgroundImageFix" result="effect1_dropShadow_316_7033"/>
<feBlend mode="normal" in="SourceGraphic" in2="effect1_dropShadow_316_7033" result="shape"/>
</filter>
<filter id="filter14_d_316_7033" x="123.638" y="63.627" width="14.2949" height="14.1885" filterUnits="userSpaceOnUse" color-interpolation-filters="sRGB">
<feFlood flood-opacity="0" result="BackgroundImageFix"/>
<feColorMatrix in="SourceAlpha" type="matrix" values="0 0 0 0 0 0 0 0 0 0 0 0 0 0 0 0 0 0 127 0" result="hardAlpha"/>
<feOffset dy="1"/>
<feGaussianBlur stdDeviation="1"/>
<feComposite in2="hardAlpha" operator="out"/>
<feColorMatrix type="matrix" values="0 0 0 0 0 0 0 0 0 0 0 0 0 0 0 0 0 0 0.1 0"/>
<feBlend mode="normal" in2="BackgroundImageFix" result="effect1_dropShadow_316_7033"/>
<feBlend mode="normal" in="SourceGraphic" in2="effect1_dropShadow_316_7033" result="shape"/>
</filter>
<filter id="filter15_d_316_7033" x="76.6968" y="99.375" width="14.2397" height="14.2393" filterUnits="userSpaceOnUse" color-interpolation-filters="sRGB">
<feFlood flood-opacity="0" result="BackgroundImageFix"/>
<feColorMatrix in="SourceAlpha" type="matrix" values="0 0 0 0 0 0 0 0 0 0 0 0 0 0 0 0 0 0 127 0" result="hardAlpha"/>
<feOffset dy="1"/>
<feGaussianBlur stdDeviation="1"/>
<feComposite in2="hardAlpha" operator="out"/>
<feColorMatrix type="matrix" values="0 0 0 0 0 0 0 0 0 0 0 0 0 0 0 0 0 0 0.1 0"/>
<feBlend mode="normal" in2="BackgroundImageFix" result="effect1_dropShadow_316_7033"/>
<feBlend mode="normal" in="SourceGraphic" in2="effect1_dropShadow_316_7033" result="shape"/>
</filter>
<filter id="filter16_d_316_7033" x="51.7988" y="154.002" width="19.2822" height="19.4424" filterUnits="userSpaceOnUse" color-interpolation-filters="sRGB">
<feFlood flood-opacity="0" result="BackgroundImageFix"/>
<feColorMatrix in="SourceAlpha" type="matrix" values="0 0 0 0 0 0 0 0 0 0 0 0 0 0 0 0 0 0 127 0" result="hardAlpha"/>
<feOffset dy="1"/>
<feGaussianBlur stdDeviation="1"/>
<feComposite in2="hardAlpha" operator="out"/>
<feColorMatrix type="matrix" values="0 0 0 0 0 0 0 0 0 0 0 0 0 0 0 0 0 0 0.1 0"/>
<feBlend mode="normal" in2="BackgroundImageFix" result="effect1_dropShadow_316_7033"/>
<feBlend mode="normal" in="SourceGraphic" in2="effect1_dropShadow_316_7033" result="shape"/>
</filter>
<filter id="filter17_d_316_7033" x="60.4536" y="211.586" width="19.2822" height="19.4424" filterUnits="userSpaceOnUse" color-interpolation-filters="sRGB">
<feFlood flood-opacity="0" result="BackgroundImageFix"/>
<feColorMatrix in="SourceAlpha" type="matrix" values="0 0 0 0 0 0 0 0 0 0 0 0 0 0 0 0 0 0 127 0" result="hardAlpha"/>
<feOffset dy="1"/>
<feGaussianBlur stdDeviation="1"/>
<feComposite in2="hardAlpha" operator="out"/>
<feColorMatrix type="matrix" values="0 0 0 0 0 0 0 0 0 0 0 0 0 0 0 0 0 0 0.1 0"/>
<feBlend mode="normal" in2="BackgroundImageFix" result="effect1_dropShadow_316_7033"/>
<feBlend mode="normal" in="SourceGraphic" in2="effect1_dropShadow_316_7033" result="shape"/>
</filter>
</defs>
</svg>
